# xmcd CD database file
#
# Track frame offsets:
#	150
#	12788
#	27164
#	38890
#	52815
#	64549
#	78513
#	90116
#	103987
#	115751
#	129992
#	144916
#
# Disc length: 2137 seconds
#
# Revision: 2
# Processed by: cddbd v1.5.2PL0 Copyright (c) Steve Scherf et al.
# Submitted via: CDex 1.77
#
DISCID=8708570c
DTITLE=Various Artist - All That Jazz [CD2)
DYEAR=1999
DGENRE=Jazz
TTITLE0=Judy Garland/Over The Rainbow
TTITLE1=Cab Calloway/Minnie The Moocher
TTITLE2=Bob Crosby`s Bobcat/March Of The Bobcats 
TTITLE3=Count Basie/Twelfth Street Rag
TTITLE4=Ella Fitzgerald/A Tisket A Tasket
TTITLE5=Bob Hope and Shirley Ross/Thanks For The Memory
TTITLE6=The Andrews Sisters/Rhumboogie
TTITLE7=Artie Shaw/Frenesi
TTITLE8=Fred Astaire/Puttin' On The Ritz
TTITLE9=Tommy Dorsey/Boogie Woogie
TTITLE10=Duke Ellington/I Got It Bad And That Ain't Good
TTITLE11=Glenn Miller/Moonlight Serenade
EXTD=YEAR: 1999
EXTT0=
EXTT1=
EXTT2=
EXTT3=
EXTT4=
EXTT5=
EXTT6=
EXTT7=
EXTT8=
EXTT9=
EXTT10=
EXTT11=
PLAYORDER=
